# xmcd
#
# Track frame offsets: 
#        150
#        10031
#        18761
#        29542
#        45031
#        55135
#        67959
#        76849
#
# Disc length: 1183 seconds
#
# Revision: 0
# Processed by: cddbd v1.5.2PL0 Copyright (c) Steve Scherf et al.
# Submitted via: ExactAudioCopy v0.99pb4
#
DISCID=4a049d08
DTITLE=Dorsey Burnette - Best of Rock and Roll
DYEAR=1985
DGENRE=Classic Country
TTITLE0=Tall Oak Tree
TTITLE1=Setting the Woods on Fire
TTITLE2=Big Big World
TTITLE3=Magnificent Sanctuary Band
TTITLE4=Big Rock Candy Mountain
TTITLE5=Little Lord Jesus
TTITLE6=God, Country and My Baby
TTITLE7=The Greatest Love
EXTD=
EXTT0=
EXTT1=
EXTT2=
EXTT3=
EXTT4=
EXTT5=
EXTT6=
EXTT7=
PLAYORDER=
